<svg width="1000" height="1000" viewBox="0 0 1000 1000" fill="none" xmlns="http://www.w3.org/2000/svg">
<path d="M204.663 593.218C204.663 593.218 261.512 399.932 488.908 399.932C716.304 399.932 773.153 593.218 773.153 593.218C787.763 647.229 798.297 711.891 804.842 759.391C810.965 803.834 813.452 857.732 773.171 877.485C759.45 884.213 741.027 888.833 716.304 888.833C689.596 888.833 670.73 883.441 657.404 875.825C621.873 855.516 604.456 803.875 579.865 771.163C559.853 744.541 528.703 718.286 488.908 718.286C449.113 718.286 417.961 744.541 397.949 771.163C373.358 803.875 355.942 855.516 320.412 875.825C307.085 883.441 288.22 888.833 261.512 888.833C236.789 888.833 218.365 884.213 204.644 877.485C164.363 857.732 166.85 803.834 172.974 759.391C179.519 711.891 190.052 647.229 204.663 593.218Z" fill="#83DAFF" stroke="#49BFF1" stroke-width="11.3698"/>
<g filter="url(#filter0_df_101_33)">
<path d="M349.596 525.208C367.882 525.208 381.53 529.174 390.539 537.108C399.682 545.041 404.254 556.335 404.254 570.992C404.254 577.58 403.313 583.9 401.43 589.951C399.548 595.867 396.455 601.245 392.152 606.086C387.984 610.792 382.404 614.557 375.412 617.38C368.42 620.07 359.815 621.414 349.596 621.414H338.704V669.215H299.778V525.208H349.596ZM348.789 556.672H338.704V589.749H346.369C349.73 589.749 352.823 589.211 355.646 588.135C358.605 586.925 360.958 585.043 362.706 582.488C364.454 579.799 365.328 576.303 365.328 572C365.328 567.428 363.983 563.731 361.294 560.907C358.605 558.083 354.436 556.672 348.789 556.672ZM549.438 594.186C549.438 610.859 546.278 624.776 539.958 635.936C533.773 647.096 525.033 655.433 513.739 660.946C502.444 666.458 489.132 669.215 473.804 669.215H427.213V525.208H477.031C492.494 525.208 505.604 527.897 516.361 533.276C527.117 538.519 535.319 546.251 540.967 556.47C546.614 566.689 549.438 579.261 549.438 594.186ZM509.1 595.598C509.1 586.858 507.89 579.597 505.469 573.815C503.183 568.033 499.688 563.731 494.981 560.907C490.41 558.083 484.561 556.672 477.434 556.672H466.14V637.348H474.812C486.645 637.348 495.318 633.919 500.83 627.062C506.343 620.204 509.1 609.716 509.1 595.598ZM613.651 669.215H575.33V525.208H660.443V556.47H613.651V583.9H656.813V615.162H613.651V669.215Z" fill="white"/>
</g>
<path d="M645.894 605.522L635.325 636.001C631.737 646.349 643.415 655.288 652.467 649.124L679.131 630.966C679.131 630.966 681.212 609.802 673.496 603.895C665.781 597.989 645.894 605.522 645.894 605.522Z" fill="#501B1B"/>
<path d="M712.542 508.622C700.742 499.588 680.191 506.614 680.191 506.614L645.894 605.522C645.894 605.522 665.781 597.989 673.496 603.895C681.212 609.802 679.131 630.966 679.131 630.966L765.658 572.04C765.658 572.04 767.076 550.369 755.275 541.335C743.475 532.302 730.778 545.339 722.925 539.327C715.072 533.315 724.343 517.655 712.542 508.622Z" fill="#F9EDED"/>
<path d="M712.542 508.622C724.343 517.655 715.072 533.315 722.925 539.327C730.778 545.339 743.475 532.302 755.275 541.335L960.309 265.908L924.596 238.569L712.542 508.622Z" fill="#A92727"/>
<path d="M765.658 572.04L973.472 320.539C985.789 305.634 983.265 283.481 967.911 271.728L960.309 265.908L755.275 541.335C767.076 550.369 765.658 572.04 765.658 572.04Z" fill="#D0D0D0"/>
<path d="M917.301 232.985C901.948 221.231 879.904 224.577 868.73 240.357L680.191 506.614C680.191 506.614 700.742 499.588 712.542 508.622L924.596 238.569L917.301 232.985Z" fill="#D0D0D0"/>
<path d="M924.596 238.569L917.301 232.985C901.948 221.231 879.904 224.577 868.73 240.357L680.191 506.614L645.894 605.522L635.325 636.001C631.737 646.349 643.415 655.288 652.467 649.124L679.131 630.966L765.658 572.04L973.472 320.539C985.789 305.634 983.265 283.481 967.911 271.728L960.309 265.908M765.658 572.04C765.658 572.04 767.076 550.369 755.275 541.335M680.191 506.614C680.191 506.614 700.742 499.588 712.542 508.622M712.542 508.622C724.343 517.655 715.072 533.315 722.925 539.327C730.778 545.339 743.475 532.302 755.275 541.335M712.542 508.622L924.596 238.569M755.275 541.335L960.309 265.908M645.894 605.522C645.894 605.522 665.781 597.989 673.496 603.895C681.212 609.802 679.131 630.966 679.131 630.966M924.596 238.569L960.309 265.908" stroke="#34142B" stroke-width="13.4543"/>
<path d="M155.618 468.695C165.505 471.53 172.486 477.234 177.299 485.298C182.202 493.515 184.983 504.423 185.8 517.651C187.438 544.165 181.104 578.346 170.768 614.391C160.424 650.467 148.409 680.241 133.778 699.318C126.505 708.801 118.805 715.348 110.636 718.853C102.58 722.308 93.6792 722.979 83.5373 720.071C63.4659 714.316 48.205 695.836 40.4883 668.934C32.7977 642.123 32.9337 607.802 43.0719 572.446C53.2102 537.089 71.2824 507.911 92.012 489.25C112.812 470.525 135.547 462.94 155.618 468.695Z" fill="#83DAFF" stroke="#49BFF1" stroke-width="11.3698"/>
<path d="M905.387 451.048C911.438 477.643 906.538 499.883 890.194 511.919C876.247 522.189 864.927 526.535 855.218 527.144C845.611 527.746 836.833 524.735 827.809 518.8C818.664 512.785 809.563 503.968 799.4 493.324C789.376 482.826 778.314 470.544 765.726 458.386C753.233 446.321 740.999 435.743 731.025 426.49C720.838 417.039 712.813 408.802 707.609 400.676C702.509 392.713 700.287 385.122 701.353 376.769C702.442 368.223 707.066 358.125 717.218 345.459C730.146 329.331 752.557 323.768 778.895 328.614C805.14 333.442 834.199 348.517 858.463 371.95C882.731 395.388 899.374 424.614 905.387 451.048Z" fill="#83DAFF" stroke="#49BFF1" stroke-width="11.3698"/>
<path d="M318.714 167.496C356.569 150.136 407.183 142.6 407.183 142.6C407.183 142.6 440.5 136 499.08 143.79C557.659 151.58 668.043 207.831 682.615 318.702C693.163 398.958 659.378 406.073 640.005 410.153L639.966 410.161C631.916 411.857 624.054 407.409 617.606 401.218C601.156 385.421 567.015 375.172 529.22 373.113C477.242 370.282 438.106 377.875 438.106 377.875C438.106 377.875 398.336 380.653 348.855 396.819C312.875 408.574 285.166 426.953 273.355 446.464C268.727 454.11 262.281 460.439 254.066 460.881L253.879 460.891C234.07 461.959 197.132 463.95 186.61 383.894C172.038 273.023 280.859 184.857 318.714 167.496Z" fill="#83DAFF" stroke="#49BFF1" stroke-width="11.3698"/>
<g filter="url(#filter1_f_101_33)">
<circle cx="301.472" cy="337.781" r="51.1641" transform="rotate(-7.48764 301.472 337.781)" fill="#FC8385"/>
</g>
<g filter="url(#filter2_f_101_33)">
<circle cx="560.745" cy="303.699" r="51.1641" transform="rotate(-7.48764 560.745 303.699)" fill="#FC8385"/>
</g>
<path d="M378.978 268.223C386.28 282.69 394.798 310.755 387.773 332.249C379.646 357.114 343.314 362.642 323.901 345.108C316.036 338.005 309.899 327.029 309.459 310.073C307.842 247.839 340.915 246.026 342.419 245.976C342.454 245.975 342.472 245.975 342.472 245.975C349.233 246.725 356.279 248.048 363.381 252.082C369.987 255.833 375.554 261.441 378.978 268.223Z" fill="#221515"/>
<path d="M275.487 335.711C274.155 284.436 302.889 246.995 342.472 245.975M342.472 245.975C349.233 246.725 356.279 248.048 363.381 252.082C369.987 255.833 375.554 261.441 378.978 268.223C386.28 282.69 394.798 310.755 387.773 332.249C379.646 357.114 343.314 362.642 323.901 345.108C316.036 338.005 309.899 327.029 309.459 310.073C307.805 246.392 342.472 245.975 342.472 245.975Z" stroke="black" stroke-width="9.89882" stroke-linecap="round"/>
<path d="M323.688 285.37C323.268 275.714 328.763 267.977 338.018 265.193C351.106 261.256 373.367 279.938 363.399 289.289C358.562 293.827 324.366 300.938 323.688 285.37Z" fill="white"/>
<path d="M322.121 301.5C321.999 298.337 323.269 295.817 325.432 294.927C328.49 293.67 333.754 299.842 331.44 302.88C330.317 304.354 322.318 306.6 322.121 301.5Z" fill="white"/>
<path d="M466.564 253.738C463.248 269.6 462.271 298.914 474.611 317.862C488.888 339.782 525.414 335.735 539.638 313.78C545.4 304.885 548.492 292.696 544.536 276.202C530.016 215.665 497.598 222.459 496.133 222.799C496.099 222.807 496.081 222.812 496.081 222.812C489.744 225.283 483.279 228.383 477.46 234.115C472.047 239.446 468.118 246.301 466.564 253.738Z" fill="#221515"/>
<path d="M583.979 292.192C572.016 242.314 534.583 213.569 496.081 222.812M496.081 222.812C489.744 225.283 483.279 228.383 477.46 234.115C472.047 239.446 468.118 246.301 466.564 253.738C463.248 269.6 462.271 298.914 474.611 317.862C488.888 339.782 525.414 335.735 539.638 313.78C545.4 304.885 548.492 292.696 544.536 276.202C529.678 214.257 496.081 222.812 496.081 222.812Z" stroke="black" stroke-width="9.89882" stroke-linecap="round"/>
<path d="M524.405 256.02C522.316 246.585 515.008 240.53 505.348 240.232C491.687 239.81 475.01 263.611 487.056 270.068C492.901 273.202 527.773 271.235 524.405 256.02Z" fill="white"/>
<path d="M530.085 271.203C529.386 268.116 527.508 266.009 525.189 265.709C521.909 265.284 518.419 272.607 521.44 274.944C522.906 276.078 531.213 276.18 530.085 271.203Z" fill="white"/>
<defs>
<filter id="filter0_df_101_33" x="295.23" y="523.708" width="369.761" height="161.425" filterUnits="userSpaceOnUse" color-interpolation-filters="sRGB">
<feFlood flood-opacity="0" result="BackgroundImageFix"/>
<feColorMatrix in="SourceAlpha" type="matrix" values="0 0 0 0 0 0 0 0 0 0 0 0 0 0 0 0 0 0 127 0" result="hardAlpha"/>
<feOffset dy="11.3698"/>
<feGaussianBlur stdDeviation="2.27396"/>
<feComposite in2="hardAlpha" operator="out"/>
<feColorMatrix type="matrix" values="0 0 0 0 0.286275 0 0 0 0 0.74902 0 0 0 0 0.945098 0 0 0 1 0"/>
<feBlend mode="normal" in2="BackgroundImageFix" result="effect1_dropShadow_101_33"/>
<feBlend mode="normal" in="SourceGraphic" in2="effect1_dropShadow_101_33" result="shape"/>
<feGaussianBlur stdDeviation="0.75" result="effect2_foregroundBlur_101_33"/>
</filter>
<filter id="filter1_f_101_33" x="240.07" y="276.379" width="122.805" height="122.805" filterUnits="userSpaceOnUse" color-interpolation-filters="sRGB">
<feFlood flood-opacity="0" result="BackgroundImageFix"/>
<feBlend mode="normal" in="SourceGraphic" in2="BackgroundImageFix" result="shape"/>
<feGaussianBlur stdDeviation="5.11641" result="effect1_foregroundBlur_101_33"/>
</filter>
<filter id="filter2_f_101_33" x="499.342" y="242.296" width="122.805" height="122.805" filterUnits="userSpaceOnUse" color-interpolation-filters="sRGB">
<feFlood flood-opacity="0" result="BackgroundImageFix"/>
<feBlend mode="normal" in="SourceGraphic" in2="BackgroundImageFix" result="shape"/>
<feGaussianBlur stdDeviation="5.11641" result="effect1_foregroundBlur_101_33"/>
</filter>
</defs>
</svg>
